<svg xmlns="http://www.w3.org/2000/svg" width="316" height="314" viewBox="0 0 316 314">
  <g fill="none" fill-rule="evenodd" transform="translate(-23 -14)">
    <ellipse cx="181.496" cy="155.063" stroke="#F236B2" stroke-width="4" rx="86.295" ry="156.571" transform="rotate(-119 181.496 155.063)"/>
    <path fill="#F236B2" d="M72.3063623,122.996117 L84.3269358,122.996117 L84.3269358,170.180771 L112.817256,170.180771 L112.817256,180.523148 L72.3063623,180.523148 L72.3063623,122.996117 Z M157.913921,166.668266 C160.71093,163.155743 162.109413,158.16023 162.109413,151.681577 C162.109413,145.228942 160.71093,140.239934 157.913921,136.714402 C155.116912,133.18887 151.337754,131.42613 146.576334,131.42613 C141.814915,131.42613 138.016243,133.182365 135.180206,136.694888 C132.344169,140.207411 130.926172,145.202924 130.926172,151.681577 C130.926172,158.16023 132.344169,163.155743 135.180206,166.668266 C138.016243,170.180789 141.814915,171.937024 146.576334,171.937024 C151.337754,171.937024 155.116912,170.180789 157.913921,166.668266 Z M165.426779,175.410501 C161.081658,179.885716 154.79824,182.123289 146.576334,182.123289 C138.354429,182.123289 132.07101,179.885716 127.72589,175.410501 C121.897704,169.920558 118.983654,162.010996 118.983654,151.681577 C118.983654,141.144009 121.897704,133.234446 127.72589,127.952653 C132.07101,123.477438 138.354429,121.239865 146.576334,121.239865 C154.79824,121.239865 161.081658,123.477438 165.426779,127.952653 C171.228946,133.234446 174.129987,141.144009 174.129987,151.681577 C174.129987,162.010996 171.228946,169.920558 165.426779,175.410501 Z M221.978114,140.948922 C221.06746,137.0201 218.842895,134.27517 215.304354,132.714049 C213.326933,131.855432 211.128387,131.42613 208.708649,131.42613 C204.077323,131.42613 200.272147,133.175861 197.293007,136.675374 C194.313868,140.174887 192.82432,145.437088 192.82432,152.462134 C192.82432,159.539217 194.437454,164.547739 197.663772,167.487851 C200.890089,170.427962 204.558669,171.897996 208.669621,171.897996 C212.702518,171.897996 216.006842,170.733677 218.582692,168.405005 C221.158542,166.076332 222.745658,163.025687 223.344088,159.252977 L210.035596,159.252977 L210.035596,149.652129 L233.998687,149.652129 L233.998687,180.523148 L226.037009,180.523148 L224.827146,173.342026 C222.511482,176.073988 220.430019,177.999342 218.582692,179.118146 C215.408412,181.069547 211.505667,182.045233 206.874341,182.045233 C199.250866,182.045233 193.006474,179.404376 188.14098,174.122583 C183.067336,168.81477 180.530552,161.555666 180.530552,152.34505 C180.530552,143.03036 183.093354,135.563109 188.219035,129.943072 C193.344717,124.323036 200.122483,121.51306 208.552538,121.51306 C215.863789,121.51306 221.73742,123.366863 226.173606,127.074526 C230.609792,130.782189 233.153081,135.406942 233.803548,140.948922 L221.978114,140.948922 Z M282.256606,166.668266 C285.053615,163.155743 286.452099,158.16023 286.452099,151.681577 C286.452099,145.228942 285.053615,140.239934 282.256606,136.714402 C279.459597,133.18887 275.68044,131.42613 270.91902,131.42613 C266.1576,131.42613 262.358929,133.182365 259.522892,136.694888 C256.686855,140.207411 255.268858,145.202924 255.268858,151.681577 C255.268858,158.16023 256.686855,163.155743 259.522892,166.668266 C262.358929,170.180789 266.1576,171.937024 270.91902,171.937024 C275.68044,171.937024 279.459597,170.180789 282.256606,166.668266 Z M289.769465,175.410501 C285.424344,179.885716 279.140925,182.123289 270.91902,182.123289 C262.697115,182.123289 256.413696,179.885716 252.068575,175.410501 C246.240389,169.920558 243.32634,162.010996 243.32634,151.681577 C243.32634,141.144009 246.240389,133.234446 252.068575,127.952653 C256.413696,123.477438 262.697115,121.239865 270.91902,121.239865 C279.140925,121.239865 285.424344,123.477438 289.769465,127.952653 C295.571632,133.234446 298.472672,141.144009 298.472672,151.681577 C298.472672,162.010996 295.571632,169.920558 289.769465,175.410501 Z" transform="rotate(-31 185.39 151.682)"/>
  </g>
</svg>
