<svg xmlns="http://www.w3.org/2000/svg" width="333" height="276" viewBox="0 0 333 276">
  <g fill="none" fill-rule="evenodd">
    <path stroke="#EDE575" stroke-width="4" d="M2,295 L331,295 L331,10 C331,5.581722 327.418278,2 323,2 L10,2 C5.581722,2 2,5.581722 2,10 L2,295 Z"/>
    <rect width="153" height="7" x="22" y="66" fill="#EDE575"/>
    <rect width="153" height="7" x="22" y="256" fill="#EDE575"/>
    <rect width="72" height="7" x="49" y="100" fill="#EDE575"/>
    <rect width="72" height="7" x="35" y="144" fill="#EDE575"/>
    <rect width="183" height="7" x="49" y="83" fill="#EDE575"/>
    <rect width="183" height="7" x="49" y="229" fill="#EDE575"/>
    <rect width="86" height="7" x="49" y="117" fill="#EDE575"/>
    <rect width="86" height="7" x="49" y="161" fill="#EDE575"/>
    <rect width="86" height="7" x="49" y="212" fill="#EDE575"/>
    <rect width="72" height="7" x="65" y="178" fill="#EDE575"/>
    <rect width="86" height="7" x="65" y="195" fill="#EDE575"/>
    <path fill="#EDE575" d="M7,3 L328,3 C330.209139,3 332,4.790861 332,7 L332,44 L3,44 L3,7 C3,4.790861 4.790861,3 7,3 Z"/>
    <circle cx="20" cy="22" r="5" fill="#3C3C3C"/>
    <circle cx="40" cy="22" r="5" fill="#3C3C3C"/>
    <circle cx="60" cy="22" r="5" fill="#3C3C3C"/>
  </g>
</svg>
