<?xml version="1.0" encoding="UTF-8"?>
<svg width="333px" height="279px" viewBox="0 0 333 279" version="1.1" xmlns="http://www.w3.org/2000/svg" xmlns:xlink="http://www.w3.org/1999/xlink">
    <!-- Generator: Sketch 50.2 (55047) - http://www.bohemiancoding.com/sketch -->
    <title>Group 2</title>
    <desc>Created with Sketch.</desc>
    <defs></defs>
    <g id="Page-2" stroke="none" stroke-width="1" fill="none" fill-rule="evenodd">
        <g id="Desktop-HD" transform="translate(-826.000000, -1394.000000)">
            <g id="Rectangle-3" transform="translate(240.000000, 1323.000000)">
                <g id="Group-2" transform="translate(586.000000, 71.000000)">
                    <path d="M2,295 L331,295 L331,10 C331,5.581722 327.418278,2 323,2 L10,2 C5.581722,2 2,5.581722 2,10 L2,295 Z" id="Rectangle-3" stroke="#21F188" stroke-width="4"></path>
                    <circle id="Oval-2" fill="#21F188" cx="167" cy="46" r="12"></circle>
                    <rect id="Rectangle-4" fill="#21F188" x="90" y="74" width="153" height="7"></rect>
                    <rect id="Rectangle-4-Copy-9" fill="#21F188" x="22" y="239" width="72" height="7"></rect>
                    <rect id="Rectangle-4-Copy-11" fill="#21F188" x="121" y="239" width="72" height="7"></rect>
                    <rect id="Rectangle-4-Copy-4" fill="#21F188" x="75" y="91" width="183" height="7"></rect>
                    <rect id="Rectangle-4-Copy-10" fill="#21F188" x="22" y="256" width="86" height="7"></rect>
                    <rect id="Rectangle-4-Copy-12" fill="#21F188" x="121" y="256" width="86" height="7"></rect>
                    <rect id="Rectangle-4-Copy-14" fill="#21F188" x="222" y="239" width="72" height="7"></rect>
                    <rect id="Rectangle-4-Copy-13" fill="#21F188" x="222" y="256" width="86" height="7"></rect>
                    <rect id="Rectangle-4-Copy-5" fill="#21F188" x="136" y="112" width="61" height="18" rx="3"></rect>
                    <rect id="Rectangle-4-Copy-6" fill="#21F188" x="21" y="167" width="92" height="60" rx="3"></rect>
                    <rect id="Rectangle-4-Copy-7" fill="#21F188" x="121" y="167" width="92" height="60" rx="3"></rect>
                    <rect id="Rectangle-4-Copy-8" fill="#21F188" x="221" y="167" width="92" height="60" rx="3"></rect>
                </g>
            </g>
        </g>
    </g>
</svg>