<svg xmlns="http://www.w3.org/2000/svg" width="322" height="315" viewBox="0 0 322 315">
  <g fill="none" fill-rule="evenodd">
    <path stroke="#29DEEF" stroke-width="3.6" d="M178.120107,86.4265702 L194.426826,18.2486498 L213.938483,86.6723116 L282.567145,22.8405598 L240.117331,133.496856 L301.299056,156.440794 L235.036269,175.533896 L302.039239,300.41851 L191.655209,201.054813 L134.888381,298.865577 L134.888381,213.596114 L20.8344539,240.020155 L109.530433,180.66111 L38.866566,175.60898 L106.907954,151.159328 L12.6795964,94.8768996 L110.880712,110.112727 L84.5075639,73.949179 L133.574326,94.7946407 L102.721175,10.3357722 L178.120107,86.4265702 Z"/>
    <path fill="#29DEEF" d="M144.949271,84.4267101 L181.608268,121.422092 L189.493323,88.4549038 L198.89423,121.422092 L232.089575,90.5469884 L211.528686,144.144204 L241,155.196328 L208.779564,164.480394 L241,224.534996 L187.775626,176.624346 L159.969529,224.534996 L159.969529,183.304124 L105.563355,195.908959 L148.852943,166.937763 L114.481854,164.480394 L146.919273,152.824494 L101.245902,125.543871 L148.852943,132.930067 L136.058021,115.385336 L159.969529,125.543871 L144.949271,84.4267101 Z M165.900629,118.589577 L173.557166,139.548942 L161.368338,134.370655 L167.890516,143.314036 L143.622951,139.548942 L166.904833,153.455168 L150.369943,159.396733 L167.890516,160.64937 L145.823762,175.417362 L173.557166,168.99208 L173.557166,190.009409 L187.731252,165.587081 L214.862237,190.009409 L198.437954,159.396733 L214.862237,154.664204 L199.839312,149.030413 L210.320172,121.709372 L193.398931,137.447876 L188.606843,120.642938 L184.587457,137.447876 L165.900629,118.589577 Z"/>
  </g>
</svg>
