<svg xmlns="http://www.w3.org/2000/svg" width="53" height="30" viewBox="0 0 53 30">
  <path fill="#babec0" fill-rule="evenodd" d="M262.9,74.5 C263.661857,74.6948364 264.74326,73.542971 265.171429,72.25 C265.406709,70.2595485 264.875246,68.7487861 263.657143,68.5 C262.895459,68.3114814 261.820215,69.4601135 261.385714,70.75 C261.148847,72.7443444 261.682949,74.2591484 262.9,74.5 M273.5,70 C270.987917,70 268.957143,72.6871712 268.957143,76 C268.957143,79.3095913 270.987917,82 273.5,82 C276.005274,82 278.042857,79.3095913 278.042857,76 C278.042857,72.6871712 276.005274,70 273.5,70 M289.4,52 C281.45,52 280.567219,58.1245524 279.557143,58.75 C278.8,58.9997245 276.150828,58.1245524 273.5,58 C270.850828,58.1245524 269.083609,58.9997245 267.442857,58.75 C266.433609,58.1245524 265.55,52 257.6,52 C251.885109,52.0008264 247,56.7733659 247,62.5 C247,68.2101059 251.020547,72.9710755 256.842857,73 L257.6,69.25 C257.423609,69.5158396 256.896922,69.5001377 256.842857,69.25 C256.583891,69.5001377 256.843922,69.5084019 256.842857,69.25 C253.288781,69.2984928 250.533609,65.9895321 250.785714,62.5 C250.533609,58.8898115 253.986063,55.4990359 257.6,55.75 C264.731812,55.4990359 263.783609,64.5176892 263.657143,62.5 C263.783609,62.9946086 264.005547,63.402857 263.657143,64 C265.55,63.3755854 268.462516,61.7475503 273.5,61.75 C278.394219,61.5897052 281.45,63.3755854 283.342857,64 C283.006047,63.4003778 283.217219,62.9946086 283.342857,62.5 C283.217219,64.5176892 282.252453,55.4990359 289.4,55.75 C293.009797,55.4990359 296.467219,58.8898115 296.214286,62.5 C296.467219,65.9895321 293.70625,69.2984928 290.157143,69.25 C290.15525,69.5084019 290.415281,69.5001377 290.157143,69.25 C290.091484,69.5001377 289.590469,69.5158396 289.4,69.25 L290.157143,73 C295.990219,72.9925623 300,68.2167172 300,62.5 C300,56.7733659 295.119031,52 289.4,52 M286.371429,70.75 C285.938899,69.461965 284.86064,68.3038265 284.1,68.5 C282.886906,68.7483319 282.349094,70.2604583 282.585714,72.25 C283.022237,73.5441407 284.096982,74.6909645 284.857143,74.5 C286.071595,74.2488837 286.605891,72.7456474 286.371429,70.75" transform="translate(-247 -52)"/>
</svg>
